# AST/ASF file generated using VICON BodyLanguage
# -----------------------------------------------
:version 1.10
:name VICON
:units
  mass 1.0
  length 0.45
  angle deg
:documentation
   .ast/.asf automatically generated from VICON data using
   VICON BodyBuilder and BodyLanguage model FoxedUp or BRILLIANT.MOD
:root
   order TX TY TZ RX RY RZ
   axis XYZ
   position 0 0 0  
   orientation 0 0 0 
:bonedata
  begin
     id 1 
     name lhipjoint
     direction 0.650112 -0.723553 0.232005 
     length 2.45805 
     axis 0 0 0  XYZ
  end
  begin
     id 2 
     name lfemur
     direction 0.34202 -0.939693 0  
     length 7.00073  
     axis 0 0 20  XYZ
    dof rx ry rz
    limits (-160.0 20.0)
           (-70.0 70.0)
           (-60.0 70.0)
  end
  begin
     id 3 
     name ltibia
     direction 0.34202 -0.939693 0   
     length 7.8748   
     axis 0 0 20   XYZ
    dof rx
    limits (-10.0 170.0)
  end
  begin
     id 4 
     name lfoot
     direction 0.0542825 -0.14914 0.987325   
     length 1.75978   
     axis -90 7.62852e-016 20   XYZ
    dof rx rz
    limits (-45.0 90.0)
           (-70.0 20.0)
  end
  begin
     id 5 
     name ltoes
     direction 1.53509e-011 -4.21906e-011 1   
     length 0.893912   
     axis -90 7.62852e-016 20   XYZ
    dof rx
    limits (-90.0 20.0)
  end
  begin
     id 6 
     name rhipjoint
     direction -0.637897 -0.733345 0.235145   
     length 2.42522  
     axis 0 0 0  XYZ 
  end
  begin
     id 7 
     name rfemur
     direction -0.34202 -0.939693 0   
     length 7.02549   
     axis 0 0 -20   XYZ
    dof rx ry rz
    limits (-160.0 20.0)
           (-70.0 70.0)
           (-70.0 60.0)
  end
  begin
     id 8 
     name rtibia
     direction -0.34202 -0.939693 0   
     length 7.71512   
     axis 0 0 -20   XYZ
    dof rx
    limits (-10.0 170.0)
 end
 begin
     id 9 
     name rfoot
     direction -0.0822618 -0.226012 0.970645   
     length 1.90014  
     axis -90 -7.62852e-016 -20   XYZ
    dof rx rz
    limits (-45.0 90.0)
           (-20.0 70.0)
  end
  begin
     id 10 
     name rtoes
     direction -1.53542e-011 -4.21872e-011 1   
     length 0.957341   
     axis -90 -7.62852e-016 -20   XYZ
    dof rx
    limits (-90.0 20.0)
  end
  begin
     id 11 
     name lowerback
     direction -0.0022947 0.999774 -0.0211557   
     length 1.89909   
     axis 0 0 0   XYZ
    dof rx ry rz
    limits (-20.0 45.0)
           (-30.0 30.0)
           (-30.0 30.0)
  end
  begin
     id 12 
     name upperback
     direction 0.0107737 0.998635 0.0511027   
     length 1.8853   
     axis 0 0 0   XYZ
    dof rx ry rz
    limits (-20.0 45.0)
           (-30.0 30.0)
           (-30.0 30.0)
  end
  begin
     id 13 
     name thorax
     direction 0.011824 0.998136 0.0598754   
     length 1.88911   
     axis 0 0 0   XYZ
    dof rx ry rz
    limits (-20.0 45.0)
           (-30.0 30.0)
           (-30.0 30.0)
  end
  begin
     id 14 
     name lowerneck
     direction -0.0685355 0.990319 0.120714   
     length 1.91222   
     axis 0 0 0   XYZ
    dof rx ry rz
    limits (-20.0 45.0)
           (-30.0 30.0)
           (-30.0 30.0)
  end
  begin
     id 15 
     name upperneck
     direction 0.0886204 0.955665 -0.280805   
     length 1.92526   
     axis 0 0 0   XYZ
    dof rx ry rz
    limits (-20.0 45.0)
           (-30.0 30.0)
           (-30.0 30.0)
  end
  begin
     id 16
     name head
     direction 0.0233423 0.993502 -0.111393  
     length 1.96056  
     axis 0 0 0   XYZ
    dof rx ry rz
    limits (-20.0 45.0)
           (-30.0 30.0)
           (-30.0 30.0)
  end
  begin
     id 17 
     name lclavicle
     direction 0.941873 0.32922 0.0670041  
     length 3.31705  
     axis 0 0 0   XYZ
    dof ry rz
    limits (-20.0 10.0)
           (0.0 20.0)
  end
  begin
     id 18 
     name lhumerus
     direction 1 -4.4898e-011 3.38707e-028   
     length 5.29277   
     axis 180 -30 -90   XYZ
    dof rx ry rz
    limits (-60.0 90.0)
           (-90.0 90.0)
           (-90.0 90.0)
  end
  begin
     id 19
     name lradius
     direction 1 -4.48952e-011 1.63213e-028   
     length 2.85226   
     axis 180 -30 -90   XYZ
    dof rx
    limits (-10.0 170.0)
  end
  begin
     id 20
     name lwrist
     direction 1 -4.49001e-011 1.27856e-027   
     length 1.42613   
     axis -1.61767e-015 90 90   XYZ
    dof ry
    limits (-180.0 0.0)
 end
  begin
     id 21 
     name lhand
     direction 1 -4.48976e-011 2.55931e-027   
     length 0.602097   
     axis -1.63363e-015 90 90   XYZ
    dof rx rz
    limits (-90.0 90.0)
           (-45.0 45.0)
  end
  begin
     id 22 
     name lfingers
     direction 1 -4.48986e-011 5.11684e-027   
     length 0.485426   
     axis -3.26723e-015 90 90   XYZ
    dof rx
    limits (0.0 90.0)
  end
  begin
     id 23
     name lthumb
     direction 0.707107 -6.34915e-011 0.707107   
     length 0.696978   
     axis -90 45 -2.25915e-014   XYZ
    dof rx rz
    limits (-45.0 45.0)
           (-45.0 45.0)
  end
  begin
     id 24 
     name rclavicle
     direction -0.939974 0.327078 0.0973096   
     length 3.10337  
     axis 0 0 0   XYZ 
    dof ry rz
    limits (-10.0 20.0)
           (-20.0 0.0)
  end
  begin
     id 25 
     name rhumerus
     direction -1 -4.48975e-011 1.83745e-027  
     length 5.13304   
     axis 180 30 90   XYZ
    dof rx ry rz
    limits (-90.0 60.0)
           (-90.0 90.0)
           (-90.0 90.0)
  end
  begin
     id 26 
     name rradius
     direction -1 -4.48977e-011 7.1775e-029   
     length 2.74305   
     axis 180 30 90   XYZ
    dof rx
    limits (-10.0 170.0)
  end
  begin
     id 27 
     name rwrist
     direction -1 -4.48977e-011 1.27963e-027   
     length 1.37152   
     axis -1.61767e-015 -90 -90   XYZ
    dof ry
    limits (-180.0 0.0)
  end
  begin
     id 28
     name rhand
     direction -1 -4.4888e-011 2.56782e-027   
     length 0.767976   
     axis -1.63363e-015 -90 -90   XYZ
    dof rx rz
    limits (-90.0 90.0)
           (-45.0 45.0)
  end
  begin
     id 29
     name rfingers
     direction -1 -4.48947e-011 5.12384e-027   
     length 0.619162   
     axis -3.26723e-015 -90 -90   XYZ
    dof rx
    limits (0.0 90.0)
  end
  begin
     id 30
     name rthumb
     direction -0.707107 -6.34857e-011 0.707107   
     length 0.888997   
     axis -90 -45 2.25915e-014   XYZ
    dof rx rz
    limits (-45.0 45.0)
           (-45.0 45.0)
  end
:hierarchy
  begin
    root lhipjoint rhipjoint lowerback
    lhipjoint lfemur
    lfemur ltibia
    ltibia lfoot
    lfoot ltoes
    rhipjoint rfemur
    rfemur rtibia
    rtibia rfoot
    rfoot rtoes
    lowerback upperback
    upperback thorax
    thorax lowerneck lclavicle rclavicle
    lowerneck upperneck
    upperneck head
    lclavicle lhumerus
    lhumerus lradius
    lradius lwrist
    lwrist lhand lthumb
    lhand lfingers
    rclavicle rhumerus
    rhumerus rradius
    rradius rwrist
    rwrist rhand rthumb
    rhand rfingers
  end

#!OML:ASF F:\VICON\USERDATA\INSTALL\rory3\rory3.ASF
:FULLY-SPECIFIED
:DEGREES
1717
root -0.151063 15.4404 -1.51257 0.00262582 -5.61367 -6.66545
lowerback 21.2984 -0.211382 -7.08313
upperback 13.986 -1.5073 -4.93721
thorax 3.51324 -1.05489 -1.0592
lowerneck -4.35369 -5.19381 -14.0603
upperneck 6.32857 -8.39482 27.5517
head 4.4636 -3.65382 10.9122
rclavicle -3.18055e-014 -2.22639e-014
rhumerus 20.3611 -2.70739 14.5508
rradius 95.9923
rwrist -27.2059
rhand 21.101 12.3214
rfingers 7.12502
rthumb 45.5593 -10.9544
lclavicle -3.18055e-014 -2.22639e-014
lhumerus 54.0714 34.4874 55.467
lradius 100.025
lwrist 99.192
lhand -9.03196 25.7852
lfingers 7.12502
lthumb 16.9157 55.0685
rfemur -31.3298 -3.77174 26.619
rtibia 61.3663
rfoot -38.9898 -1.22805
rtoes -16.5102
lfemur -31.4255 8.6595 -7.97885
ltibia 65.8846
lfoot -30.0744 -2.96444
ltoes -20.1183
1718
root -0.148003 15.4095 -1.51187 -0.277908 -6.44416 -6.69927
lowerback 21.167 -0.295304 -7.92706
upperback 14.0575 -1.74425 -5.18891
thorax 3.70916 -1.23106 -0.829924
lowerneck -4.79886 -5.12109 -14.5538
upperneck 6.65491 -8.29111 27.5587
head 4.63766 -3.57287 11.0233
rclavicle -1.59028e-015 -1.59028e-014
rhumerus 20.5435 -3.53286 14.9286
rradius 95.8465
rwrist -24.5038
rhand 21.4179 13.2347
rfingers 7.12502
rthumb 45.8536 -9.92055
lclavicle -1.59028e-015 -1.59028e-014
lhumerus 53.1732 34.5935 56.3808
lradius 99.647
lwrist 102.423
lhand -8.56167 26.1852
lfingers 7.12502
lthumb 17.3683 55.4292
rfemur -31.3196 -3.01748 26.6607
rtibia 61.8921
rfoot -39.3149 -1.22766
rtoes -16.0113
lfemur -31.0124 9.38119 -7.80848
ltibia 66.3064
lfoot -30.355 -3.01637
ltoes -19.9338
1719
root -0.146153 15.3842 -1.51169 -0.573319 -7.27832 -6.51098
lowerback 21.0093 -0.307737 -9.04598
upperback 14.0379 -1.93348 -5.38381
thorax 3.84036 -1.40208 -0.397535
lowerneck -4.85337 -5.00466 -15.3075
upperneck 6.88212 -8.11534 27.6071
head 4.70527 -3.49461 11.2151
rclavicle 1.59028e-015 -2.8625e-014
rhumerus 20.8613 -4.21498 15.3121
rradius 95.7225
rwrist -21.7383
rhand 21.9745 14.1545
rfingers 7.12502
rthumb 46.3698 -8.78441
lclavicle 1.59028e-015 -2.8625e-014
lhumerus 52.0406 34.7434 57.151
lradius 99.1239
lwrist 104.9
lhand -8.22296 25.9993
lfingers 7.12502
lthumb 17.6943 55.2142
rfemur -31.2766 -2.23862 26.4691
rtibia 62.3274
rfoot -39.4137 -1.11936
rtoes -15.3138
lfemur -30.5578 9.97358 -7.89279
ltibia 66.6296
lfoot -30.6345 -2.80405
ltoes -20.3737
1720
root -0.146224 15.3584 -1.51291 -0.748224 -7.97169 -6.41902
lowerback 20.7681 -0.261394 -9.72023
upperback 14.0071 -1.96072 -5.7242
thorax 3.96307 -1.45261 -0.397626
lowerneck -4.69654 -4.95743 -15.1127
upperneck 6.80644 -8.04205 27.352
head 4.61393 -3.4765 11.0828
rclavicle 6.52014e-014 1.59028e-014
rhumerus 20.4202 -4.70411 15.4785
rradius 95.6705
rwrist -18.8849
rhand 22.2201 15.0434
rfingers 7.12502
rthumb 46.5974 -7.79812
lclavicle 6.52014e-014 1.59028e-014
lhumerus 51.2709 34.3735 57.8558
lradius 98.493
lwrist 106.505
lhand -8.05814 25.5561
lfingers 7.12502
lthumb 17.8529 54.7567
rfemur -31.2882 -1.5603 26.3928
rtibia 62.6546
rfoot -39.3947 -1.11157
rtoes -15.4191
lfemur -30.2691 10.4526 -7.88379
ltibia 66.9213
lfoot -30.9603 -2.53167
ltoes -21.2741
1721
root -0.146069 15.3376 -1.5174 -0.770856 -8.53746 -6.69782
lowerback 20.5775 -0.261414 -9.63171
upperback 13.9686 -1.93273 -6.19096
thorax 3.99139 -1.413 -0.958371
lowerneck -4.53578 -4.98162 -14.6958
upperneck 6.64545 -8.11749 27.4898
head 4.54556 -3.52129 11.0447
rclavicle -5.08889e-014 -1.90833e-014
rhumerus 19.3946 -5.18085 15.3392
rradius 95.7692
rwrist -15.8189
rhand 22.6258 15.7261
rfingers 7.12502
rthumb 46.9729 -6.95208
lclavicle -5.08889e-014 -1.90833e-014
lhumerus 50.7884 33.513 58.3309
lradius 97.6619
lwrist 107.161
lhand -7.87955 25.1134
lfingers 7.12502
lthumb 18.0247 54.2981
rfemur -31.3224 -0.925609 26.7318
rtibia 62.8189
rfoot -39.2038 -1.02905
rtoes -15.0232
lfemur -30.1667 10.8494 -7.47624
ltibia 67.172
lfoot -31.1488 -2.36746
ltoes -21.7427
1722
root -0.146392 15.3229 -1.52076 -0.769649 -8.93907 -6.8385
lowerback 20.3261 -0.304955 -9.53143
upperback 13.9804 -1.94301 -6.71472
thorax 4.10916 -1.39155 -1.58626
lowerneck -4.282 -5.06824 -14.7147
upperneck 6.46452 -8.30306 28.0868
head 4.52457 -3.63039 11.2652
rclavicle 3.49861e-014 3.18055e-014
rhumerus 18.2556 -5.89605 15.0145
rradius 96.0356
rwrist -12.1826
rhand 23.4846 16.5026
rfingers 7.12502
rthumb 47.7664 -5.81851
lclavicle 3.49861e-014 3.18055e-014
lhumerus 50.4485 32.5888 58.6989
lradius 96.7376
lwrist 107.158
lhand -7.96186 24.6123
lfingers 7.12502
lthumb 17.9455 53.8044
rfemur -31.3271 -0.475893 26.9103
rtibia 62.8599
rfoot -39.0304 -0.94834
rtoes -15.1138
lfemur -30.0886 11.049 -7.26908
ltibia 67.3049
lfoot -31.2877 -2.20437
ltoes -21.8957
1723
root -0.145507 15.3218 -1.52303 -0.802467 -9.17057 -6.79106
lowerback 20.1311 -0.344506 -9.45547
upperback 13.9861 -1.95755 -7.25999
thorax 4.19451 -1.37015 -2.22363
lowerneck -4.27321 -5.25733 -14.4405
upperneck 6.6697 -8.66757 28.2501
head 4.66562 -3.79472 11.2473
rclavicle 4.92986e-014 9.85972e-014
rhumerus 16.9383 -6.63829 14.7289
rradius 96.3966
rwrist -8.43261
rhand 24.236 17.4251
rfingers 7.12502
rthumb 48.4588 -4.57073
lclavicle 4.92986e-014 9.85972e-014
lhumerus 50.2051 31.5583 59.0004
lradius 95.6783
lwrist 106.636
lhand -8.03179 24.107
lfingers 7.12502
lthumb 17.8783 53.3052
rfemur -31.203 -0.22977 26.8526
rtibia 62.7508
rfoot -39.0577 -1.07009
rtoes -15.8147
lfemur -29.9313 11.0086 -7.31201
ltibia 67.2553
lfoot -31.3488 -2.21579
ltoes -21.1746
1724
root -0.146645 15.339 -1.52679 -0.804418 -9.26575 -6.70379
lowerback 20.0422 -0.3868 -9.88551
upperback 13.8539 -2.07796 -7.41543
thorax 4.11656 -1.44836 -2.13447
lowerneck -4.3332 -5.33462 -14.3612
upperneck 7.12809 -8.82708 27.8031
head 4.8148 -3.85713 11.0534
rclavicle 3.33958e-014 1.59028e-014
rhumerus 16.2326 -7.29796 14.8545
rradius 96.7649
rwrist -5.16943
rhand 24.1861 18.1928
rfingers 7.12502
rthumb 48.4129 -3.82505
lclavicle 3.33958e-014 1.59028e-014
lhumerus 49.3566 30.984 59.3243
lradius 94.6398
lwrist 105.976
lhand -8.24395 23.9091
lfingers 7.12502
lthumb 17.6741 53.1259
rfemur -31.1059 -0.112711 26.7507
rtibia 62.499
rfoot -39.0191 -0.989736
rtoes -15.766
lfemur -29.771 10.8235 -7.43369
ltibia 67.0282
lfoot -31.2961 -2.15259
ltoes -20.4665
1725
root -0.14882 15.3677 -1.53394 -0.711192 -9.29274 -6.67503
lowerback 20.0154 -0.472729 -10.2443
upperback 13.6845 -2.25649 -7.54503
thorax 3.96349 -1.54787 -2.04334
lowerneck -4.16304 -5.25092 -14.3273
upperneck 7.24873 -8.71088 27.4699
head 4.768 -3.81435 10.9345
rclavicle 2.70347e-014 3.18055e-015
rhumerus 15.7999 -8.12943 14.6877
rradius 97.3711
rwrist -1.72451
rhand 24.4838 18.5311
rfingers 7.12502
rthumb 48.6868 -3.35482
lclavicle 2.70347e-014 3.18055e-015
lhumerus 48.4303 30.4662 59.4629
lradius 93.5909
lwrist 105.5
lhand -8.51904 23.7934
lfingers 7.12502
lthumb 17.4094 53.0338
rfemur -31.1092 -0.108034 26.7762
rtibia 62.0977
rfoot -38.9653 -1.15186
rtoes -15.8661
lfemur -29.6808 10.5352 -7.52802
ltibia 66.6784
lfoot -31.1977 -1.91847
ltoes -19.9427
1726
root -0.151357 15.3987 -1.54087 -0.542063 -9.21131 -6.78417
lowerback 19.9327 -0.582382 -10.3979
upperback 13.7348 -2.40087 -7.59388
thorax 4.07836 -1.6323 -1.9965
lowerneck -4.14558 -5.21844 -14.5375
upperneck 6.83249 -8.57756 27.5676
head 4.62998 -3.77243 11.0139
rclavicle -6.83819e-014 -9.85972e-014
rhumerus 15.2399 -9.58283 14.3658
rradius 97.9628
rwrist 1.88355
rhand 25.3193 18.9955
rfingers 7.12502
rthumb 49.4542 -2.50921
lclavicle -6.83819e-014 -9.85972e-014
lhumerus 48.0273 30.0502 59.8028
lradius 92.4843
lwrist 105.305
lhand -8.7962 23.8385
lfingers 7.12502
lthumb 17.1426 53.1023
rfemur -31.0176 -0.144518 26.9435
rtibia 61.5227
rfoot -38.8081 -1.42647
rtoes -16.6217
lfemur -29.6911 10.2002 -7.48094
ltibia 66.2623
lfoot -31.069 -1.65183
ltoes -19.8726
